<svg xmlns="http://www.w3.org/2000/svg" viewBox="0 0 24 24" width="24" height="24">
  <g fill="#c0bdb8">
    <path fill-rule="evenodd" d="M 10.98 5.58 L 10.59 3.11 L 13.41 3.11 L 13.02 5.58 L 15.82 6.74 L 17.29 4.72 L 19.28 6.71 L 17.26 8.18 L 18.42 10.98 L 20.89 10.59 L 20.89 13.41 L 18.42 13.02 L 17.26 15.82 L 19.28 17.29 L 17.29 19.28 L 15.82 17.26 L 13.02 18.42 L 13.41 20.89 L 10.59 20.89 L 10.98 18.42 L 8.18 17.26 L 6.71 19.28 L 4.72 17.29 L 6.74 15.82 L 5.58 13.02 L 3.11 13.41 L 3.11 10.59 L 5.58 10.98 L 6.74 8.18 L 4.72 6.71 L 6.71 4.72 L 8.18 6.74 Z M 12.00 12.00 m 3.00 0 a 3.00 3.00 0 1 0 -6.00 0 a 3.00 3.00 0 1 0 6.00 0 Z"/>
  </g>
</svg>
