<svg xmlns="http://www.w3.org/2000/svg" viewBox="0 0 24 24" width="24" height="24">
  <g fill="#c0bdb8">
    <path d="M6 8 C3 8 2 11 2 14 L2 16 C2 17.7 3.3 19 5 19 C5.8 19 6.5 18.7 7 18.1 L9.4 15.5 L14.6 15.5 L17 18.1 C17.5 18.7 18.2 19 19 19 C20.7 19 22 17.7 22 16 L22 14 C22 11 21 8 18 8 Z M9 11 L9 12.5 L7.5 12.5 L7.5 14 L6 14 L6 12.5 L4.5 12.5 L4.5 11 L6 11 L6 9.5 L7.5 9.5 L7.5 11 Z M17 10.5 C17.6 10.5 18 10.9 18 11.5 C18 12.1 17.6 12.5 17 12.5 C16.4 12.5 16 12.1 16 11.5 C16 10.9 16.4 10.5 17 10.5 Z M19.5 13 C20.1 13 20.5 13.4 20.5 14 C20.5 14.6 20.1 15 19.5 15 C18.9 15 18.5 14.6 18.5 14 C18.5 13.4 18.9 13 19.5 13 Z"/>
  </g>
</svg>
